<svg xmlns="http://www.w3.org/2000/svg" xmlns:xlink="http://www.w3.org/1999/xlink" width="0" height="0" style="display:none;"><symbol id="wat321-epic-handshake"></symbol><symbol viewBox="0 0 24 24" id="wat321-wat321-square-alert">
  <path style="fill:#000000" d="M 7.1992383 3 C 6.0791383 3 5.3810648 2.9479245 4.6386914 3.3261914 C 4.0742998 3.6137487 3.6137487 4.0742998 3.3261914 4.6386914 C 2.9479277 5.3810592 3 6.0791284 3 7.1992383 L 3 16.800762 C 3 17.920862 2.9478955 18.618913 3.3261914 19.361309 C 3.6137383 19.925635 4.0741846 20.386253 4.6386914 20.673809 C 5.3810647 21.052093 6.0791283 21 7.1992383 21 L 16.800762 21 C 17.920862 21 18.618907 21.052121 19.361309 20.673809 C 19.92575 20.386264 20.386264 19.92575 20.673809 19.361309 C 21.052125 18.618907 21 17.920862 21 16.800762 L 21 7.1992383 C 21 6.0791384 21.052096 5.3810703 20.673809 4.6386914 C 20.386253 4.0741846 19.925635 3.6137383 19.361309 3.3261914 C 18.618913 2.9478956 17.920862 3 16.800762 3 L 7.1992383 3 z M 7.1992383 4.9999805 L 16.800762 4.9999805 C 17.920862 4.9999805 18.339901 5.051691 18.453105 5.109375 C 18.641379 5.205308 18.794781 5.3587412 18.890625 5.5468945 C 18.948338 5.6601556 19.00002 6.0791384 19.00002 7.1992383 L 19.00002 16.800762 C 19.00002 17.920862 18.94831 18.339907 18.890625 18.453105 C 18.794775 18.641264 18.641264 18.794771 18.453105 18.890625 C 18.339907 18.948309 17.920862 19.00002 16.800762 19.00002 L 7.1992383 19.00002 C 6.0791283 19.00002 5.6601612 18.94834 5.5468945 18.890625 C 5.3587412 18.794785 5.2053081 18.641379 5.109375 18.453105 C 5.0516908 18.339901 4.9999805 17.920862 4.9999805 16.800762 L 4.9999805 7.1992383 C 4.9999805 6.0791283 5.0516587 5.6601667 5.109375 5.5468945 C 5.2052977 5.3586261 5.3586261 5.2052977 5.5468945 5.109375 C 5.6601611 5.0516615 6.0791384 4.9999805 7.1992383 4.9999805 z M 12.009785 7.9999805 A 1 1 0 0 0 11.009766 8.9999805 L 11.009766 13 A 1 1 0 0 0 12.009785 14.00002 A 1 1 0 0 0 13.009746 13 L 13.009746 8.9999805 A 1 1 0 0 0 12.009785 7.9999805 z M 12 15.5 A 1 1 0 0 0 10.99998 16.50002 A 1 1 0 0 0 12 17.49998 L 12.009785 17.49998 A 1 1 0 0 0 13.009805 16.50002 A 1 1 0 0 0 12.009785 15.5 L 12 15.5 z"></path>
</symbol><symbol id="wat321-wat321-square-arrow-left"></symbol><symbol id="wat321-wat321-square-arrow-right"></symbol><symbol viewBox="0 0 24 24" id="wat321-wat321-square-bolt">
  <path style="fill:#000000" d="M 7.1992383 3 C 6.0791383 3 5.3810648 2.9479245 4.6386914 3.3261914 C 4.0742998 3.6137487 3.6137487 4.0742998 3.3261914 4.6386914 C 2.9479277 5.3810592 3 6.0791284 3 7.1992383 L 3 16.800762 C 3 17.920862 2.9478955 18.618913 3.3261914 19.361309 C 3.6137383 19.925635 4.0741846 20.386253 4.6386914 20.673809 C 5.3810647 21.052093 6.0791283 21 7.1992383 21 L 16.800762 21 C 17.920862 21 18.618907 21.052121 19.361309 20.673809 C 19.92575 20.386264 20.386264 19.92575 20.673809 19.361309 C 21.052125 18.618907 21 17.920862 21 16.800762 L 21 7.1992383 C 21 6.0791384 21.052096 5.3810703 20.673809 4.6386914 C 20.386253 4.0741846 19.925635 3.6137383 19.361309 3.3261914 C 18.618913 2.9478956 17.920862 3 16.800762 3 L 7.1992383 3 z M 7.1992383 4.9999805 L 16.800762 4.9999805 C 17.920862 4.9999805 18.339901 5.051691 18.453105 5.109375 C 18.641379 5.205308 18.794781 5.3587412 18.890625 5.5468945 C 18.948338 5.6601556 19.00002 6.0791384 19.00002 7.1992383 L 19.00002 16.800762 C 19.00002 17.920862 18.94831 18.339907 18.890625 18.453105 C 18.794775 18.641264 18.641264 18.794771 18.453105 18.890625 C 18.339907 18.948309 17.920862 19.00002 16.800762 19.00002 L 7.1992383 19.00002 C 6.0791283 19.00002 5.6601612 18.94834 5.5468945 18.890625 C 5.3587412 18.794785 5.2053081 18.641379 5.109375 18.453105 C 5.0516908 18.339901 4.9999805 17.920862 4.9999805 16.800762 L 4.9999805 7.1992383 C 4.9999805 6.0791283 5.0516587 5.6601667 5.109375 5.5468945 C 5.2052977 5.3586261 5.3586261 5.2052977 5.5468945 5.109375 C 5.6601611 5.0516615 6.0791384 4.9999805 7.1992383 4.9999805 z M 9.5004492 6.7505273 A 0.50005 0.50005 0 0 0 9.0258398 7.0923047 L 7.5258398 11.592305 A 0.50005 0.50005 0 0 0 8.0004492 12.250547 L 9.8910937 12.250547 L 9.0101953 16.652871 A 0.50005 0.50005 0 0 0 9.8666602 17.090391 L 16.366641 10.090371 A 0.50005 0.50005 0 0 0 16.00043 9.2505469 L 13.422305 9.2505469 L 13.978945 7.3940625 A 0.50005 0.50005 0 0 0 13.500469 6.7505273 L 9.5004492 6.7505273 z M 9.8608008 7.7505469 L 12.828574 7.7505469 L 12.271934 9.6069727 A 0.50005 0.50005 0 0 0 12.750469 10.250508 L 14.853984 10.250508 L 10.337344 15.114785 L 10.990664 11.848184 A 0.50005 0.50005 0 0 0 10.500469 11.250527 L 8.6947852 11.250527 L 9.8608008 7.7505469 z"></path>
</symbol><symbol id="wat321-wat321-square-check"></symbol><symbol viewBox="0 0 24 24" id="wat321-wat321-square-error">
  <path style="fill:#000000" d="M 7.1992383 3 C 6.0791383 3 5.3810648 2.9479245 4.6386914 3.3261914 C 4.0742998 3.6137487 3.6137487 4.0742998 3.3261914 4.6386914 C 2.9479277 5.3810592 3 6.0791284 3 7.1992383 L 3 16.800762 C 3 17.920862 2.9478955 18.618913 3.3261914 19.361309 C 3.6137383 19.925635 4.0741846 20.386253 4.6386914 20.673809 C 5.3810647 21.052093 6.0791283 21 7.1992383 21 L 16.800762 21 C 17.920862 21 18.618907 21.052121 19.361309 20.673809 C 19.92575 20.386264 20.386264 19.92575 20.673809 19.361309 C 21.052125 18.618907 21 17.920862 21 16.800762 L 21 7.1992383 C 21 6.0791384 21.052096 5.3810703 20.673809 4.6386914 C 20.386253 4.0741846 19.925635 3.6137383 19.361309 3.3261914 C 18.618913 2.9478956 17.920862 3 16.800762 3 L 7.1992383 3 z M 7.1992383 4.9999805 L 16.800762 4.9999805 C 17.920862 4.9999805 18.339901 5.051691 18.453105 5.109375 C 18.641379 5.205308 18.794781 5.3587412 18.890625 5.5468945 C 18.948338 5.6601556 19.00002 6.0791384 19.00002 7.1992383 L 19.00002 16.800762 C 19.00002 17.920862 18.94831 18.339907 18.890625 18.453105 C 18.794775 18.641264 18.641264 18.794771 18.453105 18.890625 C 18.339907 18.948309 17.920862 19.00002 16.800762 19.00002 L 7.1992383 19.00002 C 6.0791283 19.00002 5.6601612 18.94834 5.5468945 18.890625 C 5.3587412 18.794785 5.2053081 18.641379 5.109375 18.453105 C 5.0516908 18.339901 4.9999805 17.920862 4.9999805 16.800762 L 4.9999805 7.1992383 C 4.9999805 6.0791283 5.0516587 5.6601667 5.109375 5.5468945 C 5.2052977 5.3586261 5.3586261 5.2052977 5.5468945 5.109375 C 5.6601611 5.0516615 6.0791384 4.9999805 7.1992383 4.9999805 z M 9 7.9999805 A 1 1 0 0 0 8.2929492 8.2929492 A 1 1 0 0 0 8.2929492 9.7070508 L 10.585957 12 L 8.2929492 14.292949 A 1 1 0 0 0 8.2929492 15.707051 A 1 1 0 0 0 9.7070508 15.707051 L 12 13.414043 L 14.292949 15.707051 A 1 1 0 0 0 15.707051 15.707051 A 1 1 0 0 0 15.707051 14.292949 L 13.414043 12 L 15.707051 9.7070508 A 1 1 0 0 0 15.707051 8.2929492 A 1 1 0 0 0 14.292949 8.2929492 L 12 10.585957 L 9.7070508 8.2929492 A 1 1 0 0 0 9 7.9999805 z"></path>
</symbol><symbol id="wat321-wat321-square-info"></symbol><symbol viewBox="0 0 24 24" id="wat321-wat321-square-mail-open">
  <path style="fill:#000000" d="M 7.1992383 3 C 6.0791383 3 5.3810648 2.9479245 4.6386914 3.3261914 C 4.0742998 3.6137487 3.6137487 4.0742998 3.3261914 4.6386914 C 2.9479277 5.3810592 3 6.0791284 3 7.1992383 L 3 16.800762 C 3 17.920862 2.9478955 18.618913 3.3261914 19.361309 C 3.6137383 19.925635 4.0741846 20.386253 4.6386914 20.673809 C 5.3810647 21.052093 6.0791283 21 7.1992383 21 L 16.800762 21 C 17.920862 21 18.618907 21.052121 19.361309 20.673809 C 19.92575 20.386264 20.386264 19.92575 20.673809 19.361309 C 21.052125 18.618907 21 17.920862 21 16.800762 L 21 7.1992383 C 21 6.0791384 21.052096 5.3810703 20.673809 4.6386914 C 20.386253 4.0741846 19.925635 3.6137383 19.361309 3.3261914 C 18.618913 2.9478956 17.920862 3 16.800762 3 L 7.1992383 3 z M 7.1992383 4.9999805 L 16.800762 4.9999805 C 17.920862 4.9999805 18.339901 5.051691 18.453105 5.109375 C 18.641379 5.205308 18.794781 5.3587412 18.890625 5.5468945 C 18.948338 5.6601556 19.00002 6.0791384 19.00002 7.1992383 L 19.00002 16.800762 C 19.00002 17.920862 18.94831 18.339907 18.890625 18.453105 C 18.794775 18.641264 18.641264 18.794771 18.453105 18.890625 C 18.339907 18.948309 17.920862 19.00002 16.800762 19.00002 L 7.1992383 19.00002 C 6.0791283 19.00002 5.6601612 18.94834 5.5468945 18.890625 C 5.3587412 18.794785 5.2053081 18.641379 5.109375 18.453105 C 5.0516908 18.339901 4.9999805 17.920862 4.9999805 16.800762 L 4.9999805 7.1992383 C 4.9999805 6.0791283 5.0516587 5.6601667 5.109375 5.5468945 C 5.2052977 5.3586261 5.3586261 5.2052977 5.5468945 5.109375 C 5.6601611 5.0516615 6.0791384 4.9999805 7.1992383 4.9999805 z M 12 6.4999805 C 11.683337 6.4999805 11.366675 6.5999805 11.1 6.7999805 C 10.465675 7.2757255 8.1837078 9.0111323 7.0911328 9.8424023 C 6.7183878 10.125997 6.4999805 10.567143 6.4999805 11.035488 L 6.4999805 16.00002 C 6.4999805 16.82847 7.1715555 17.50002 7.9999805 17.50002 L 16.00002 17.50002 C 16.82847 17.50002 17.50002 16.82847 17.50002 16.00002 L 17.50002 11.035488 C 17.50002 10.567143 17.281626 10.125997 16.908926 9.8424023 C 15.816326 9.0111323 13.5343 7.2757205 12.9 6.7999805 C 12.633325 6.5999805 12.316663 6.4999805 12 6.4999805 z M 12 7.5 C 12.10555 7.5 12.2111 7.533352 12.3 7.6000195 L 15.889629 10.292227 L 12.309785 13.118379 C 12.128135 13.261829 11.871865 13.261829 11.690215 13.118379 L 8.1103711 10.292227 L 11.7 7.6000195 C 11.7889 7.533352 11.89445 7.5 12 7.5 z M 7.5 11.084414 L 11.070527 13.903242 C 11.615477 14.333492 12.384523 14.333492 12.929473 13.903242 L 16.5 11.084414 L 16.5 16.00002 C 16.5 16.27617 16.27617 16.5 16.00002 16.5 L 7.9999805 16.5 C 7.7238405 16.5 7.5 16.27617 7.5 16.00002 L 7.5 11.084414 z"></path>
</symbol><symbol viewBox="0 0 24 24" id="wat321-wat321-square-mail">
  <path style="fill:#000000" d="M 7.1992383 3 C 6.0791383 3 5.3810648 2.9479245 4.6386914 3.3261914 C 4.0742998 3.6137487 3.6137487 4.0742998 3.3261914 4.6386914 C 2.9479277 5.3810592 3 6.0791284 3 7.1992383 L 3 16.800762 C 3 17.920862 2.9478955 18.618913 3.3261914 19.361309 C 3.6137383 19.925635 4.0741846 20.386253 4.6386914 20.673809 C 5.3810647 21.052093 6.0791283 21 7.1992383 21 L 16.800762 21 C 17.920862 21 18.618907 21.052121 19.361309 20.673809 C 19.92575 20.386264 20.386264 19.92575 20.673809 19.361309 C 21.052125 18.618907 21 17.920862 21 16.800762 L 21 7.1992383 C 21 6.0791384 21.052096 5.3810703 20.673809 4.6386914 C 20.386253 4.0741846 19.925635 3.6137383 19.361309 3.3261914 C 18.618913 2.9478956 17.920862 3 16.800762 3 L 7.1992383 3 z M 7.1992383 4.9999805 L 16.800762 4.9999805 C 17.920862 4.9999805 18.339901 5.051691 18.453105 5.109375 C 18.641379 5.205308 18.794781 5.3587412 18.890625 5.5468945 C 18.948338 5.6601556 19.00002 6.0791384 19.00002 7.1992383 L 19.00002 16.800762 C 19.00002 17.920862 18.94831 18.339907 18.890625 18.453105 C 18.794775 18.641264 18.641264 18.794771 18.453105 18.890625 C 18.339907 18.948309 17.920862 19.00002 16.800762 19.00002 L 7.1992383 19.00002 C 6.0791283 19.00002 5.6601612 18.94834 5.5468945 18.890625 C 5.3587412 18.794785 5.2053081 18.641379 5.109375 18.453105 C 5.0516908 18.339901 4.9999805 17.920862 4.9999805 16.800762 L 4.9999805 7.1992383 C 4.9999805 6.0791283 5.0516587 5.6601667 5.109375 5.5468945 C 5.2052977 5.3586261 5.3586261 5.2052977 5.5468945 5.109375 C 5.6601611 5.0516615 6.0791384 4.9999805 7.1992383 4.9999805 z M 7.9999805 9.5000391 C 7.1715555 9.5000391 6.4999805 10.171614 6.4999805 11.000039 L 6.4999805 16.00002 C 6.4999805 16.82847 7.1715555 17.50002 7.9999805 17.50002 L 16.00002 17.50002 C 16.82847 17.50002 17.50002 16.82847 17.50002 16.00002 L 17.50002 11.000039 C 17.50002 10.171614 16.82847 9.5000391 16.00002 9.5000391 L 7.9999805 9.5000391 z M 8.3735742 10.5 L 15.626426 10.5 L 12.309844 13.118379 C 12.128144 13.261829 11.871865 13.261829 11.690215 13.118379 L 8.3735742 10.5 z M 7.5 11.084414 L 11.070527 13.903242 C 11.615477 14.333492 12.384523 14.333492 12.929473 13.903242 L 16.5 11.084414 L 16.5 16.00002 C 16.5 16.27617 16.27617 16.5 16.00002 16.5 L 7.9999805 16.5 C 7.7238405 16.5 7.5 16.27617 7.5 16.00002 L 7.5 11.084414 z"></path>
</symbol><symbol viewBox="0 0 24 24" id="wat321-wat321-square-pause">
  <path style="fill:#000000" d="M 7.1992383 3 C 6.0791383 3 5.3810648 2.9479245 4.6386914 3.3261914 C 4.0742998 3.6137487 3.6137487 4.0742998 3.3261914 4.6386914 C 2.9479277 5.3810592 3 6.0791284 3 7.1992383 L 3 16.800762 C 3 17.920862 2.9478955 18.618913 3.3261914 19.361309 C 3.6137383 19.925635 4.0741846 20.386253 4.6386914 20.673809 C 5.3810647 21.052093 6.0791283 21 7.1992383 21 L 16.800762 21 C 17.920862 21 18.618907 21.052121 19.361309 20.673809 C 19.92575 20.386264 20.386264 19.92575 20.673809 19.361309 C 21.052125 18.618907 21 17.920862 21 16.800762 L 21 7.1992383 C 21 6.0791384 21.052096 5.3810703 20.673809 4.6386914 C 20.386253 4.0741846 19.925635 3.6137383 19.361309 3.3261914 C 18.618913 2.9478956 17.920862 3 16.800762 3 L 7.1992383 3 z M 7.1992383 4.9999805 L 16.800762 4.9999805 C 17.920862 4.9999805 18.339901 5.051691 18.453105 5.109375 C 18.641379 5.205308 18.794781 5.3587412 18.890625 5.5468945 C 18.948338 5.6601556 19.00002 6.0791384 19.00002 7.1992383 L 19.00002 16.800762 C 19.00002 17.920862 18.94831 18.339907 18.890625 18.453105 C 18.794775 18.641264 18.641264 18.794771 18.453105 18.890625 C 18.339907 18.948309 17.920862 19.00002 16.800762 19.00002 L 7.1992383 19.00002 C 6.0791283 19.00002 5.6601612 18.94834 5.5468945 18.890625 C 5.3587412 18.794785 5.2053081 18.641379 5.109375 18.453105 C 5.0516908 18.339901 4.9999805 17.920862 4.9999805 16.800762 L 4.9999805 7.1992383 C 4.9999805 6.0791283 5.0516587 5.6601667 5.109375 5.5468945 C 5.2052977 5.3586261 5.3586261 5.2052977 5.5468945 5.109375 C 5.6601611 5.0516615 6.0791384 4.9999805 7.1992383 4.9999805 z M 10.00002 7.9999805 A 1 1 0 0 0 9 9 L 9 15 A 1 1 0 0 0 10.00002 16.00002 A 1 1 0 0 0 10.99998 15 L 10.99998 9 A 1 1 0 0 0 10.00002 7.9999805 z M 13.99998 7.9999805 A 1 1 0 0 0 13.00002 9 L 13.00002 15 A 1 1 0 0 0 13.99998 16.00002 A 1 1 0 0 0 15 15 L 15 9 A 1 1 0 0 0 13.99998 7.9999805 z"></path>
</symbol><symbol viewBox="0 0 24 24" id="wat321-wat321-square-play">
  <path style="fill:#000000" d="M 7.1992383 3 C 6.0791383 3 5.3810648 2.9479245 4.6386914 3.3261914 C 4.0742998 3.6137487 3.6137487 4.0742998 3.3261914 4.6386914 C 2.9479277 5.3810592 3 6.0791284 3 7.1992383 L 3 16.800762 C 3 17.920862 2.9478955 18.618913 3.3261914 19.361309 C 3.6137383 19.925635 4.0741846 20.386253 4.6386914 20.673809 C 5.3810647 21.052093 6.0791283 21 7.1992383 21 L 16.800762 21 C 17.920862 21 18.618907 21.052121 19.361309 20.673809 C 19.92575 20.386264 20.386264 19.92575 20.673809 19.361309 C 21.052125 18.618907 21 17.920862 21 16.800762 L 21 7.1992383 C 21 6.0791384 21.052096 5.3810703 20.673809 4.6386914 C 20.386253 4.0741846 19.925635 3.6137383 19.361309 3.3261914 C 18.618913 2.9478956 17.920862 3 16.800762 3 L 7.1992383 3 z M 7.1992383 4.9999805 L 16.800762 4.9999805 C 17.920862 4.9999805 18.339901 5.051691 18.453105 5.109375 C 18.641379 5.205308 18.794781 5.3587412 18.890625 5.5468945 C 18.948338 5.6601556 19.00002 6.0791384 19.00002 7.1992383 L 19.00002 16.800762 C 19.00002 17.920862 18.94831 18.339907 18.890625 18.453105 C 18.794775 18.641264 18.641264 18.794771 18.453105 18.890625 C 18.339907 18.948309 17.920862 19.00002 16.800762 19.00002 L 7.1992383 19.00002 C 6.0791283 19.00002 5.6601612 18.94834 5.5468945 18.890625 C 5.3587412 18.794785 5.2053081 18.641379 5.109375 18.453105 C 5.0516908 18.339901 4.9999805 17.920862 4.9999805 16.800762 L 4.9999805 7.1992383 C 4.9999805 6.0791283 5.0516587 5.6601667 5.109375 5.5468945 C 5.2052977 5.3586261 5.3586261 5.2052977 5.5468945 5.109375 C 5.6601611 5.0516615 6.0791384 4.9999805 7.1992383 4.9999805 z M 10.986328 8.2812305 C 9.9609438 8.3139354 9 9.1489661 9 10.267559 L 9 13.732441 C 9 15.2239 10.708287 16.210557 12 15.464824 L 15 13.732441 C 16.29166 12.986738 16.29166 11.013262 15 10.267559 L 12 8.5351758 C 11.677085 8.34875 11.328123 8.2703289 10.986328 8.2812305 z M 10.99998 10.267559 L 13.99998 12 L 10.99998 13.732441 L 10.99998 10.267559 z"></path>
</symbol><symbol viewBox="0 0 24 24" id="wat321-wat321-square">
  <path style="fill:#000000" d="M 7.1992383 3 C 6.0791383 3 5.3810648 2.9479245 4.6386914 3.3261914 C 4.0742998 3.6137487 3.6137487 4.0742998 3.3261914 4.6386914 C 2.9479277 5.3810592 3 6.0791284 3 7.1992383 L 3 16.800762 C 3 17.920862 2.9478955 18.618913 3.3261914 19.361309 C 3.6137383 19.925635 4.0741846 20.386253 4.6386914 20.673809 C 5.3810647 21.052093 6.0791283 21 7.1992383 21 L 16.800762 21 C 17.920862 21 18.618907 21.052121 19.361309 20.673809 C 19.92575 20.386264 20.386264 19.92575 20.673809 19.361309 C 21.052125 18.618907 21 17.920862 21 16.800762 L 21 7.1992383 C 21 6.0791384 21.052096 5.3810703 20.673809 4.6386914 C 20.386253 4.0741846 19.925635 3.6137383 19.361309 3.3261914 C 18.618913 2.9478956 17.920862 3 16.800762 3 L 7.1992383 3 z M 7.1992383 4.9999805 L 16.800762 4.9999805 C 17.920862 4.9999805 18.339901 5.051691 18.453105 5.109375 C 18.641379 5.205308 18.794781 5.3587412 18.890625 5.5468945 C 18.948338 5.6601556 19.00002 6.0791384 19.00002 7.1992383 L 19.00002 16.800762 C 19.00002 17.920862 18.94831 18.339907 18.890625 18.453105 C 18.794775 18.641264 18.641264 18.794771 18.453105 18.890625 C 18.339907 18.948309 17.920862 19.00002 16.800762 19.00002 L 7.1992383 19.00002 C 6.0791283 19.00002 5.6601612 18.94834 5.5468945 18.890625 C 5.3587412 18.794785 5.2053081 18.641379 5.109375 18.453105 C 5.0516908 18.339901 4.9999805 17.920862 4.9999805 16.800762 L 4.9999805 7.1992383 C 4.9999805 6.0791283 5.0516587 5.6601667 5.109375 5.5468945 C 5.2052977 5.3586261 5.3586261 5.2052977 5.5468945 5.109375 C 5.6601611 5.0516615 6.0791384 4.9999805 7.1992383 4.9999805 z"></path>
</symbol></svg>