<?xml version="1.0" encoding="UTF-8" standalone="no"?>
<!-- Created with Inkscape (http://www.inkscape.org/) -->

<svg
   version="1.1"
   id="svg1"
   width="585.33331"
   height="585.33331"
   viewBox="0 0 585.33331 585.33331"
   xmlns="http://www.w3.org/2000/svg"
   xmlns:svg="http://www.w3.org/2000/svg">
  <defs
     id="defs1" />
  <g
     id="g1">
    <path
       style="fill:#000000"
       d="M 0,423.81345 V 262.29358 l 7.6666664,0.7901 c 5.3305626,0.54935 11.5252746,2.70517 20.3299146,7.07501 10.436537,5.17977 14.678107,8.29977 24.121707,17.74337 9.825417,9.82542 12.435151,13.45178 18.311548,25.44486 9.054087,18.4784 11.503715,30.71746 10.520882,52.56544 -1.284565,28.55533 -13.167757,58.77217 -31.565972,80.26664 -6.88914,8.04851 -8.203503,11.15432 -4.720463,11.15432 4.276896,0 31.335714,-31.97043 31.335714,-37.02366 0,-0.61032 0.696362,-1.80604 1.547472,-2.65715 1.906428,-1.90642 7.295659,-16.88503 9.949249,-27.65252 2.466687,-10.0091 11.517044,-28.54081 15.503182,-31.74466 5.22979,-4.20342 25.3906,-15.09141 35.03715,-18.92205 l 9.29628,-3.69155 23.9308,-39.99457 23.93079,-39.99457 -5.26413,-4.15963 c -6.95057,-5.49224 -21.1857,-20.58925 -28.26569,-29.97708 -9.16584,-12.15362 -11.36833,-19.64879 -10.43649,-35.51589 0.43067,-7.33333 0.68647,-15.13333 0.56844,-17.33333 -0.11802,-2.2 -0.27064,-10.64543 -0.33915,-18.76762 -0.11681,-13.84798 0.0954,-15.09974 3.40721,-20.10092 3.17794,-4.79897 3.46131,-6.21135 2.82832,-14.09706 -1.52862,-19.043422 3.10219,-28.192054 17.48253,-34.538502 l 7.15501,-3.157705 0.70799,-10.329271 c 0.90579,-13.215183 3.1598,-17.036755 15.68604,-26.594891 17.30068,-13.201266 21.3207,-14.904881 36.60833,-15.513944 13.25038,-0.527899 13.35658,-0.559108 17.07032,-5.016522 2.08225,-2.499229 5.95816,-5.150801 8.75322,-5.988221 7.12568,-2.134905 29.03363,-1.052377 34.84312,1.721688 3.14206,1.50035 9.02269,2.362517 18,2.639 11.29032,0.34772 13.97777,0.870319 17.53916,3.410641 3.84858,2.745177 5.6926,2.999999 21.70949,2.999999 19.56695,0 24.16202,1.204479 29.69902,7.784829 5.12313,6.088496 6.80041,12.550216 6.09814,23.493084 -0.49713,7.746364 -1.54907,11.339085 -5.49696,18.773873 -5.17867,9.752621 -5.91466,12.633245 -3.21552,12.585231 4.11118,-0.07313 14.33333,-12.265688 14.33333,-17.096206 0,-3.851224 1.13458,-3.6362 7.20174,1.364867 10.36382,8.542734 12.96174,22.59023 6.70518,36.25635 -3.53146,7.71373 -3.43129,12.83797 0.25097,12.83797 1.088,0 2.91058,-2.23155 4.05018,-4.95899 l 2.072,-4.95899 4.4292,4.83309 c 5.27904,5.76043 7.27324,12.16364 7.2833,23.386 0.005,5.95911 -0.74351,9.53276 -2.65425,12.66666 -1.46393,2.40106 -2.66393,5.41556 -2.66667,6.69889 -0.006,2.61122 2.69737,3.09765 4.91119,0.88383 2.57856,-2.57856 3.66281,1.5331 4.20882,15.96056 0.65498,17.30652 -0.52953,21.30693 -10.19057,34.41633 -4.2178,5.72327 -11.17807,15.50595 -15.46726,21.73928 -4.2892,6.23334 -11.40241,15.0286 -15.80713,19.54505 l -8.00858,8.21171 6.35503,11.78828 c 3.49527,6.48356 13.91874,23.52977 23.16328,37.88047 l 16.80825,26.09217 8.67766,3.70965 c 4.77271,2.04031 12.27766,5.9453 16.67766,8.67777 9.81316,6.09412 42.50259,24.0949 43.75635,24.0949 0.50067,0 0.9182,-4.35 0.92783,-9.66667 0.0278,-15.33198 4.32241,-33.18442 11.4668,-47.66666 5.08497,-10.30765 8.26013,-14.67807 17.04887,-23.46682 8.8929,-8.8929 13.13214,-11.95387 24.00551,-17.33333 12.07521,-5.97405 14.15773,-6.57342 24.33333,-7.00334 l 11.12797,-0.47016 V 425.86316 585.33331 H 477.87033 l -107.46298,0 -6.20368,-6.83979 c -20.94187,-23.0892 -37.78455,-54.74613 -49.56474,-93.1602 -3.41645,-11.1407 -22.63894,-84.33302 -22.63894,-86.20092 0,-0.25616 -0.77267,-0.46575 -1.71704,-0.46575 -1.10742,0 -5.67279,13.84658 -12.85872,39 -15.21467,53.25698 -21.29394,71.51876 -29.22343,87.78555 -8.09736,16.61115 -22.16891,38.50205 -32.70657,50.88111 l -7.66123,9 H 103.9165 0 Z m 570.66665,5.51987 c 0,-159.84905 1.57333,-143.72732 -13.17503,-135.00256 -20.11821,11.90142 -36.2759,35.97344 -41.54819,61.89924 -3.03944,14.94609 -3.17983,14.34522 7.43713,31.83172 12.23996,20.15964 21.82683,44.75274 26.70875,68.51571 3.46518,16.8669 3.34005,20.12252 -0.8242,21.4442 -6.23201,1.97796 -9.38573,-2.45446 -21.31745,-29.96074 -7.71133,-17.777 -18.46186,-33.64841 -31.19943,-46.0609 -9.43956,-9.19866 -14.20082,-12.45581 -34.59563,-23.66667 -13.00729,-7.15 -24.19568,-13 -24.8631,-13 -2.50588,0 -16.66032,-6.88723 -21.07554,-10.25489 -4.97245,-3.79267 -32.94024,-45.55973 -43.35421,-64.74511 -3.48301,-6.41666 -6.67401,-11.66666 -7.0911,-11.66666 -0.4171,0 -6.17317,3.12507 -12.79127,6.9446 l -12.03292,6.94461 -6.40468,13.38873 c -3.52257,7.3638 -8.52394,16.68872 -11.11414,20.72206 -5.37092,8.36331 -18.101,41.06574 -18.07512,46.43332 0.009,1.96167 1.24057,7.46667 2.7358,12.23334 1.49523,4.76667 5.71494,20.66667 9.37715,35.33333 16.29372,65.25424 28.12539,95.2735 49.26286,124.98952 4.54179,6.38506 11.16067,14.32449 14.70861,17.64317 l 6.4508,6.03397 h 91.39046 91.39045 z M 199.01289,202.66666 c 6.36502,-2.23712 11.00509,-2.66667 28.80608,-2.66667 18.59323,0 21.59267,-0.30263 24.23923,-2.44568 3.00222,-2.43106 3.00537,-2.47095 0.52727,-6.66604 -4.7593,-8.05685 -25.48582,-12.5985 -58.16295,-12.74483 -12.23428,-0.0548 -22.65464,0.31089 -23.15636,0.81261 -1.37047,1.37047 -2.37473,12.43509 -1.4596,16.08128 0.44119,1.75783 2.05874,4.79353 3.59457,6.74602 2.44175,3.10418 3.74882,3.54998 10.40852,3.54998 4.19816,0 11.02104,-1.19674 15.20324,-2.66667 z m 80.83861,-31.17528 c 2.79391,-2.97397 2.86141,-3.46633 1.06473,-7.76639 -2.62263,-6.27683 -9.98433,-12.01102 -24.47162,-19.06147 -31.32654,-15.24552 -45.65937,-17.74311 -70.20342,-12.23344 -9.9626,2.23642 -12.73365,4.47945 -17.19701,13.92013 -2.31375,4.89393 -2.45687,6.23927 -1.03017,9.68362 2.16572,5.2285 6.80884,6.3435 14.71807,3.53439 3.39703,-1.20652 12.122,-2.57612 19.38883,-3.04357 11.91766,-0.76662 14.84567,-0.44868 29.87908,3.24446 9.16667,2.2519 21.16667,6.16837 26.66667,8.70327 5.5,2.53489 11.5,4.8839 13.33333,5.22001 1.83333,0.33612 3.67875,0.69283 4.10092,0.79269 0.42216,0.0999 2.10993,-1.24729 3.75059,-2.9937 z m 16.23614,-34.20496 c 1.82975,-0.97925 2.57902,-2.80023 2.57902,-6.26792 0,-4.21878 -1.09134,-5.94897 -7.9746,-12.64273 -9.06955,-8.81987 -30.15199,-22.929113 -42.0254,-28.125133 -14.18291,-6.206702 -37.84266,-10.218104 -42.82483,-7.260755 -1.55366,0.92223 -7.38935,4.273159 -12.9682,7.446508 -12.74136,7.247518 -16.87364,11.93322 -16.87364,19.1335 v 5.36529 l 5.66667,-0.63673 c 3.11667,-0.3502 8.06667,-1.58428 11,-2.7424 6.23603,-2.46207 22.8596,-2.88339 32.2677,-0.81781 3.51943,0.7727 19.59896,7.33192 35.7323,14.57604 16.13333,7.24412 30.12277,13.21191 31.08765,13.26176 0.96488,0.0498 2.91488,-0.53049 4.33333,-1.28962 z m 8.4883,-67.162591 c 2.6556,-1.109581 6.74499,-4.928224 10.00849,-9.345857 4.74219,-6.419268 5.97797,-7.354291 8.78778,-6.649072 2.40143,0.602721 3.51158,0.190023 4.18093,-1.554265 0.68161,-1.776261 -1.01135,-4.164502 -6.71642,-9.474759 -6.60686,-6.149648 -8.34936,-7.099877 -13.01958,-7.099877 -4.47483,0 -6.60735,1.03844 -12.53881,6.10585 -3.93084,3.358217 -10.32653,7.708379 -14.21266,9.667026 -5.58489,2.814844 -7.15283,4.316359 -7.48151,7.164575 -1.05443,9.137356 18.77006,16.292941 30.99178,11.186379 z M 250.39293,59.154913 c 0.39108,-8.139942 0.36643,-8.201102 -5.24,-13 -3.09811,-2.651869 -6.62576,-4.821581 -7.83922,-4.821581 -2.69969,0 -19.46441,8.253992 -23.7875,11.711615 -1.85937,1.48713 -2.94062,3.553994 -2.65058,5.06673 0.41619,2.170703 2.15203,2.705793 11.54106,3.557649 6.76519,0.613798 12.96425,2.025033 15.98391,3.638783 2.713,1.449867 6.43272,2.498669 8.26606,2.330672 3.11149,-0.285122 3.35948,-0.849746 3.72627,-8.483868 z"
       id="path1" />
  </g>
</svg>
