<?xml version="1.0" encoding="UTF-8" standalone="no"?>
<!-- Uploaded to: SVG Repo, www.svgrepo.com, Generator: SVG Repo Mixer Tools -->

<svg
   fill="#000000"
   width="800px"
   height="800px"
   viewBox="0 0 256 256"
   id="Flat"
   version="1.1"
   xmlns="http://www.w3.org/2000/svg"
   xmlns:svg="http://www.w3.org/2000/svg">
  <defs
     id="defs1" />
  <path
     id="path1"
     d="M 48 28 A 20.02229 20.02229 0 0 0 28 48 L 28 208 A 20.02229 20.02229 0 0 0 48 228 L 208 228 A 20.02229 20.02229 0 0 0 228 208 L 228 48 A 20.02229 20.02229 0 0 0 208 28 L 48 28 z M 52 52 L 204 52 L 204 204 L 52 204 L 52 52 z M 111.835 68 A 12 12 0 0 0 99.99 78.075 L 92.155 126.2775 A 12.00041 12.00041 0 0 0 112.4675 136.705 A 16.20438 16.20438 0 0 1 135.29688 136.70437 A 15.91672 15.91672 0 0 1 135.29688 159.29563 A 16.202 16.202 0 0 1 112.4675 159.29688 A 11.99943 11.99943 0 1 0 95.5325 176.30062 A 39.99911 39.99911 0 1 0 123.88188 108.00187 A 40.83 40.83 0 0 0 119.40125 108.24688 L 122.04188 92 L 152 92 A 12 12 0 0 0 152 68 L 111.835 68 z " />
</svg>
