<?xml version="1.0" encoding="UTF-8" standalone="no"?>
<!-- Uploaded to: SVG Repo, www.svgrepo.com, Generator: SVG Repo Mixer Tools -->

<svg
   fill="#000000"
   width="800px"
   height="800px"
   viewBox="0 0 256 256"
   id="Flat"
   version="1.1"
   xmlns="http://www.w3.org/2000/svg"
   xmlns:svg="http://www.w3.org/2000/svg">
  <defs
     id="defs1" />
  <path
     id="path1"
     d="M 48 28 A 20.0226 20.0226 0 0 0 28 48 L 28 208 A 20.0226 20.0226 0 0 0 48 228 L 208 228 A 20.0226 20.0226 0 0 0 228 208 L 228 48 A 20.0226 20.0226 0 0 0 208 28 L 48 28 z M 52 52 L 204 52 L 204 204 L 52 204 L 52 52 z M 125.86813 68.0625 A 36.004 36.004 0 0 0 94.83375 89.983125 A 11.999982 11.999982 0 1 0 116.9375 99.333125 A 12.00414 12.00414 0 1 1 138.09188 110.4975 L 94.52625 168.63188 A 12.00272 12.00272 0 0 0 103.99813 188.00125 C 104.13192 188.00125 104.26344 187.99878 104.39625 187.99437 L 152 187.99437 A 12 12 0 0 0 152 163.99437 L 127.99313 163.99437 L 157.50375 124.615 C 157.62093 124.45829 157.73562 124.29899 157.845 124.13688 A 36.004 36.004 0 0 0 125.86813 68.0625 z " />
</svg>
