<?xml version="1.0" encoding="UTF-8" standalone="no"?>
<!-- Uploaded to: SVG Repo, www.svgrepo.com, Generator: SVG Repo Mixer Tools -->

<svg
   fill="#000000"
   width="800px"
   height="800px"
   viewBox="0 0 256 256"
   id="Flat"
   version="1.1"
   xmlns="http://www.w3.org/2000/svg"
   xmlns:svg="http://www.w3.org/2000/svg">
  <defs
     id="defs1" />
  <path
     id="path1"
     d="M 48 28 A 20.0226 20.0226 0 0 0 28 48 L 28 208 A 20.02229 20.02229 0 0 0 48 228 L 208 228 A 20.02229 20.02229 0 0 0 228 208 L 228 48 A 20.0226 20.0226 0 0 0 208 28 L 48 28 z M 52 52 L 204 52 L 204 204 L 52 204 L 52 52 z M 123.97062 64.006875 A 12.00043 12.00043 0 0 0 112.68188 72.00625 L 88.68375 140.00625 A 12.00213 12.00213 0 0 0 90.204375 150.93125 A 11.99891 11.99891 0 0 0 100 156 L 136 156 L 136 175.99437 A 12 12 0 0 0 160 175.99437 L 160 111.99438 A 12 12 0 0 0 136 111.99438 L 136 132 L 116.96 132 L 135.31438 79.99375 A 12.00043 12.00043 0 0 0 123.97062 64.006875 z " />
</svg>
