<?xml version="1.0" encoding="UTF-8" standalone="no"?>
<!-- Uploaded to: SVG Repo, www.svgrepo.com, Generator: SVG Repo Mixer Tools -->

<svg
   fill="#000000"
   width="800px"
   height="800px"
   viewBox="0 0 256 256"
   id="Flat"
   version="1.1"
   xmlns="http://www.w3.org/2000/svg"
   xmlns:svg="http://www.w3.org/2000/svg">
  <defs
     id="defs1" />
  <path
     id="path1"
     d="M 48 28 A 20.0226 20.0226 0 0 0 28 48 L 28 208 A 20.0226 20.0226 0 0 0 48 228 L 208 228 A 20.0226 20.0226 0 0 0 228 208 L 228 48 A 20.0226 20.0226 0 0 0 208 28 L 48 28 z M 52 52 L 204 52 L 204 204 L 52 204 L 52 52 z M 131.4225 72.01375 A 11.99993 11.99993 0 0 0 125.34562 74.014375 L 101.34562 90.0075 A 11.99971 11.99971 0 0 0 98.01375 106.6475 A 12.0019 12.0019 0 0 0 114.65438 109.97875 L 120 106.41688 L 120 176 A 12 12 0 0 0 144 176 L 144 84 A 11.99993 11.99993 0 0 0 131.4225 72.01375 z " />
</svg>
