<?xml version="1.0" encoding="UTF-8" standalone="no"?>
<svg
   width="800px"
   height="800px"
   viewBox="0 0 24 24"
   fill="none"
   version="1.1"
   xmlns="http://www.w3.org/2000/svg">
  <path
     style="fill:#000000"
     d="M 7.1992383 3 C 6.0791383 3 5.3810648 2.9479245 4.6386914 3.3261914 C 4.0742998 3.6137487 3.6137487 4.0742998 3.3261914 4.6386914 C 2.9479277 5.3810592 3 6.0791284 3 7.1992383 L 3 16.800762 C 3 17.920862 2.9478955 18.618913 3.3261914 19.361309 C 3.6137383 19.925635 4.0741846 20.386253 4.6386914 20.673809 C 5.3810647 21.052093 6.0791283 21 7.1992383 21 L 16.800762 21 C 17.920862 21 18.618907 21.052121 19.361309 20.673809 C 19.92575 20.386264 20.386264 19.92575 20.673809 19.361309 C 21.052125 18.618907 21 17.920862 21 16.800762 L 21 7.1992383 C 21 6.0791384 21.052096 5.3810703 20.673809 4.6386914 C 20.386253 4.0741846 19.925635 3.6137383 19.361309 3.3261914 C 18.618913 2.9478956 17.920862 3 16.800762 3 L 7.1992383 3 z M 7.1992383 4.9999805 L 16.800762 4.9999805 C 17.920862 4.9999805 18.339901 5.051691 18.453105 5.109375 C 18.641379 5.205308 18.794781 5.3587412 18.890625 5.5468945 C 18.948338 5.6601556 19.00002 6.0791384 19.00002 7.1992383 L 19.00002 16.800762 C 19.00002 17.920862 18.94831 18.339907 18.890625 18.453105 C 18.794775 18.641264 18.641264 18.794771 18.453105 18.890625 C 18.339907 18.948309 17.920862 19.00002 16.800762 19.00002 L 7.1992383 19.00002 C 6.0791283 19.00002 5.6601612 18.94834 5.5468945 18.890625 C 5.3587412 18.794785 5.2053081 18.641379 5.109375 18.453105 C 5.0516908 18.339901 4.9999805 17.920862 4.9999805 16.800762 L 4.9999805 7.1992383 C 4.9999805 6.0791283 5.0516587 5.6601667 5.109375 5.5468945 C 5.2052977 5.3586261 5.3586261 5.2052977 5.5468945 5.109375 C 5.6601611 5.0516615 6.0791384 4.9999805 7.1992383 4.9999805 z M 12.009785 7.9999805 A 1 1 0 0 0 11.009766 8.9999805 L 11.009766 13 A 1 1 0 0 0 12.009785 14.00002 A 1 1 0 0 0 13.009746 13 L 13.009746 8.9999805 A 1 1 0 0 0 12.009785 7.9999805 z M 12 15.5 A 1 1 0 0 0 10.99998 16.50002 A 1 1 0 0 0 12 17.49998 L 12.009785 17.49998 A 1 1 0 0 0 13.009805 16.50002 A 1 1 0 0 0 12.009785 15.5 L 12 15.5 z" />
</svg>
