<?xml version="1.0" encoding="UTF-8" standalone="no"?>
<!-- Uploaded to: SVG Repo, www.svgrepo.com, Generator: SVG Repo Mixer Tools -->

<svg
   width="800px"
   height="800px"
   viewBox="0 0 24 24"
   fill="none"
   version="1.1"
   id="svg1"
   sodipodi:docname="square-check.svg"
   inkscape:version="1.4.2 (f4327f4, 2025-05-13)"
   xmlns:inkscape="http://www.inkscape.org/namespaces/inkscape"
   xmlns:sodipodi="http://sodipodi.sourceforge.net/DTD/sodipodi-0.dtd"
   xmlns="http://www.w3.org/2000/svg"
   xmlns:svg="http://www.w3.org/2000/svg">
  <defs
     id="defs1" />
  <sodipodi:namedview
     id="namedview1"
     pagecolor="#ffffff"
     bordercolor="#000000"
     borderopacity="0.25"
     inkscape:showpageshadow="2"
     inkscape:pageopacity="0.0"
     inkscape:pagecheckerboard="0"
     inkscape:deskcolor="#d1d1d1"
     showgrid="false"
     inkscape:zoom="1.02"
     inkscape:cx="399.5098"
     inkscape:cy="400"
     inkscape:window-width="1920"
     inkscape:window-height="1018"
     inkscape:window-x="-6"
     inkscape:window-y="-6"
     inkscape:window-maximized="1"
     inkscape:current-layer="svg1" />
  <path
     id="path1"
     style="baseline-shift:baseline;display:inline;overflow:visible;vector-effect:none;fill:#000000;stroke-linecap:round;stroke-linejoin:round;enable-background:accumulate;stop-color:#000000;stop-opacity:1;opacity:1"
     d="M 7.1992383 3 C 6.0791383 3 5.3810648 2.9479245 4.6386914 3.3261914 C 4.0742998 3.6137487 3.6137487 4.0742998 3.3261914 4.6386914 C 2.9479277 5.3810592 3 6.0791284 3 7.1992383 L 3 16.800762 C 3 17.920862 2.9478955 18.618913 3.3261914 19.361309 C 3.6137383 19.925635 4.0741846 20.386253 4.6386914 20.673809 C 5.3810647 21.052093 6.0791283 21 7.1992383 21 L 16.800762 21 C 17.920862 21 18.618907 21.052121 19.361309 20.673809 C 19.92575 20.386264 20.386264 19.92575 20.673809 19.361309 C 21.052125 18.618907 21 17.920862 21 16.800762 L 21 7.1992383 C 21 6.0791384 21.052096 5.3810703 20.673809 4.6386914 C 20.386253 4.0741846 19.925635 3.6137383 19.361309 3.3261914 C 18.618913 2.9478956 17.920862 3 16.800762 3 L 7.1992383 3 z M 7.1992383 4.9999805 L 16.800762 4.9999805 C 17.920862 4.9999805 18.339901 5.051691 18.453105 5.109375 C 18.641379 5.205308 18.794781 5.3587412 18.890625 5.5468945 C 18.948338 5.6601556 19.00002 6.0791384 19.00002 7.1992383 L 19.00002 16.800762 C 19.00002 17.920862 18.94831 18.339907 18.890625 18.453105 C 18.794775 18.641264 18.641264 18.794771 18.453105 18.890625 C 18.339907 18.948309 17.920862 19.00002 16.800762 19.00002 L 7.1992383 19.00002 C 6.0791283 19.00002 5.6601612 18.94834 5.5468945 18.890625 C 5.3587412 18.794785 5.2053081 18.641379 5.109375 18.453105 C 5.0516908 18.339901 4.9999805 17.920862 4.9999805 16.800762 L 4.9999805 7.1992383 C 4.9999805 6.0791283 5.0516587 5.6601667 5.109375 5.5468945 C 5.2052977 5.3586261 5.3586261 5.2052977 5.5468945 5.109375 C 5.6601611 5.0516615 6.0791384 4.9999805 7.1992383 4.9999805 z M 15.957012 7.9999805 A 1 1 0 0 0 15.263672 8.3242383 L 10.46877 13.554668 L 8.7070312 11.792988 A 1 1 0 0 0 7.2929883 11.792988 A 1 1 0 0 0 7.2929883 13.207031 L 9.7929492 15.707051 A 1.0001 1.0001 0 0 0 11.236348 15.675762 L 16.736309 9.6757617 A 1 1 0 0 0 16.675781 8.2636523 A 1 1 0 0 0 15.957012 7.9999805 z " />
</svg>
