<?xml version="1.0" encoding="UTF-8" standalone="no"?>
<!-- Uploaded to: SVG Repo, www.svgrepo.com, Generator: SVG Repo Mixer Tools -->

<svg
   fill="#000000"
   width="800px"
   height="800px"
   viewBox="0 0 256 256"
   id="Flat"
   version="1.1"
   xmlns="http://www.w3.org/2000/svg"
   xmlns:svg="http://www.w3.org/2000/svg">
  <defs
     id="defs1" />
  <path
     id="path1"
     d="M 48 28 A 20.0226 20.0226 0 0 0 28 48 L 28 208 A 20.0226 20.0226 0 0 0 48 228 L 208 228 A 20.0226 20.0226 0 0 0 228 208 L 228 48 A 20.0226 20.0226 0 0 0 208 28 L 48 28 z M 52 52 L 204 52 L 204 204 L 52 204 L 52 52 z M 104 72 A 12.00028 12.00028 0 0 0 92 84 A 12.00028 12.00028 0 0 0 104 96 L 128.95188 96 L 114.17188 117.125 A 11.99945 11.99945 0 0 0 124.00375 136.00438 A 15.99691 15.99691 0 1 1 112.6925 163.31438 A 12.000101 12.000101 0 0 0 95.721875 180.285 A 39.996958 39.996958 0 1 0 152.285 123.72 A 40.18269 40.18269 0 0 0 143.50688 117.06125 L 161.82625 90.879375 A 11.99945 11.99945 0 0 0 151.99437 72 L 104 72 z " />
</svg>
